<?xml version="1.0" encoding="UTF-8" standalone="no"?>
<!DOCTYPE svg PUBLIC "-//W3C//DTD SVG 1.1//EN"
 "http://www.w3.org/Graphics/SVG/1.1/DTD/svg11.dtd">
<!-- Generated by graphviz version 2.36.0 (20140111.2315)
 -->
<!-- Title: G Pages: 1 -->
<svg width="214pt" height="622pt"
 viewBox="0.00 0.00 214.00 622.00" xmlns="http://www.w3.org/2000/svg" xmlns:xlink="http://www.w3.org/1999/xlink">
<g id="graph0" class="graph" transform="scale(1 1) rotate(0) translate(4 618)">
<title>G</title>
<polygon fill="white" stroke="none" points="-4,4 -4,-618 210,-618 210,4 -4,4"/>
<!-- dummyNode -->
<!-- constantWeight -->
<g id="node2" class="node"><title>constantWeight</title>
<polygon fill="none" stroke="black" points="74,-540 38,-540 38,-518 74,-518 74,-540"/>
<text text-anchor="middle" x="56" y="-524.8" font-family="Times,serif" font-size="14.00">+2</text>
</g>
<!-- dummyNode&#45;&gt;constantWeight -->
<g id="edge1" class="edge"><title>dummyNode&#45;&gt;constantWeight</title>
<path fill="none" stroke="black" d="M56,-577.922C56,-565.886 56,-550.175 56,-540.085"/>
</g>
<!-- s3[level=3] -->
<g id="node3" class="node"><title>s3[level=3]</title>
<ellipse fill="lightgrey" stroke="black" cx="56" cy="-462" rx="27" ry="18"/>
<text text-anchor="middle" x="56" y="-457.8" font-family="Times,serif" font-size="14.00">A</text>
</g>
<!-- constantWeight&#45;&gt;s3[level=3] -->
<g id="edge2" class="edge"><title>constantWeight&#45;&gt;s3[level=3]</title>
<path fill="none" stroke="black" d="M56,-517.844C56,-510.449 56,-500.064 56,-490.317"/>
<polygon fill="black" stroke="black" points="59.5001,-490.163 56,-480.163 52.5001,-490.163 59.5001,-490.163"/>
</g>
<!-- s3[level=3]=0 -->
<g id="node12" class="node"><title>s3[level=3]=0</title>
<polygon fill="none" stroke="black" points="53,-354 17,-354 17,-332 53,-332 53,-354"/>
<text text-anchor="middle" x="35" y="-338.8" font-family="Times,serif" font-size="14.00">+0</text>
</g>
<!-- s3[level=3]&#45;&gt;s3[level=3]=0 -->
<g id="edge13" class="edge"><title>s3[level=3]&#45;&gt;s3[level=3]=0</title>
<path fill="none" stroke="black" d="M52.9464,-443.987C48.5099,-419.27 40.4194,-374.194 36.8156,-354.115"/>
<text text-anchor="middle" x="52.5" y="-414.8" font-family="Times,serif" font-size="14.00">0</text>
</g>
<!-- s3[level=3]=1 -->
<g id="node13" class="node"><title>s3[level=3]=1</title>
<polygon fill="none" stroke="black" points="105,-394 69,-394 69,-372 105,-372 105,-394"/>
<text text-anchor="middle" x="87" y="-378.8" font-family="Times,serif" font-size="14.00">+0</text>
</g>
<!-- s3[level=3]&#45;&gt;s3[level=3]=1 -->
<g id="edge15" class="edge"><title>s3[level=3]&#45;&gt;s3[level=3]=1</title>
<path fill="none" stroke="black" d="M62.7265,-444.292C68.8523,-429.077 77.704,-407.09 82.8534,-394.3"/>
<text text-anchor="middle" x="78.5" y="-414.8" font-family="Times,serif" font-size="14.00">1</text>
</g>
<!-- s0[level=0] -->
<g id="node4" class="node"><title>s0[level=0]</title>
<polygon fill="none" stroke="black" points="133,-22 97,-22 97,-0 133,-0 133,-22"/>
<text text-anchor="middle" x="115" y="-6.8" font-family="Times,serif" font-size="14.00">0</text>
</g>
<!-- s1[level=1] -->
<g id="node5" class="node"><title>s1[level=1]</title>
<ellipse fill="lightgrey" stroke="black" cx="106" cy="-150" rx="27" ry="18"/>
<text text-anchor="middle" x="106" y="-145.8" font-family="Times,serif" font-size="14.00">C</text>
</g>
<!-- s1[level=1]=0 -->
<g id="node6" class="node"><title>s1[level=1]=0</title>
<polygon fill="none" stroke="black" points="103,-82 67,-82 67,-60 103,-60 103,-82"/>
<text text-anchor="middle" x="85" y="-66.8" font-family="Times,serif" font-size="14.00">+0</text>
</g>
<!-- s1[level=1]&#45;&gt;s1[level=1]=0 -->
<g id="edge3" class="edge"><title>s1[level=1]&#45;&gt;s1[level=1]=0</title>
<path fill="none" stroke="black" d="M101.339,-131.911C97.1827,-116.67 91.2357,-94.8642 87.7805,-82.1952"/>
<text text-anchor="middle" x="99.5" y="-102.8" font-family="Times,serif" font-size="14.00">0</text>
</g>
<!-- s1[level=1]=1 -->
<g id="node7" class="node"><title>s1[level=1]=1</title>
<polygon fill="none" stroke="black" points="157,-82 121,-82 121,-60 157,-60 157,-82"/>
<text text-anchor="middle" x="139" y="-66.8" font-family="Times,serif" font-size="14.00">+1</text>
</g>
<!-- s1[level=1]&#45;&gt;s1[level=1]=1 -->
<g id="edge5" class="edge"><title>s1[level=1]&#45;&gt;s1[level=1]=1</title>
<path fill="none" stroke="black" d="M113.161,-132.292C119.681,-117.077 129.104,-95.0901 134.586,-82.2997"/>
<text text-anchor="middle" x="129.5" y="-102.8" font-family="Times,serif" font-size="14.00">1</text>
</g>
<!-- s1[level=1]=0&#45;&gt;s0[level=0] -->
<g id="edge4" class="edge"><title>s1[level=1]=0&#45;&gt;s0[level=0]</title>
<path fill="none" stroke="black" d="M90.2256,-59.8972C94.2625,-52.0926 99.9723,-41.0536 104.893,-31.5401"/>
<polygon fill="black" stroke="black" points="108.147,-32.8678 109.632,-22.3776 101.929,-29.6518 108.147,-32.8678"/>
</g>
<!-- s1[level=1]=1&#45;&gt;s0[level=0] -->
<g id="edge6" class="edge"><title>s1[level=1]=1&#45;&gt;s0[level=0]</title>
<path fill="none" stroke="black" d="M134.82,-59.8972C131.624,-52.1747 127.118,-41.2857 123.21,-31.841"/>
<polygon fill="black" stroke="black" points="126.352,-30.2795 119.294,-22.3776 119.884,-32.956 126.352,-30.2795"/>
</g>
<!-- s2[level=2] -->
<g id="node8" class="node"><title>s2[level=2]</title>
<ellipse fill="lightgrey" stroke="black" cx="99" cy="-296" rx="27" ry="18"/>
<text text-anchor="middle" x="99" y="-291.8" font-family="Times,serif" font-size="14.00">B</text>
</g>
<!-- s2[level=2]=0 -->
<g id="node9" class="node"><title>s2[level=2]=0</title>
<polygon fill="none" stroke="black" points="98,-228 62,-228 62,-206 98,-206 98,-228"/>
<text text-anchor="middle" x="80" y="-212.8" font-family="Times,serif" font-size="14.00">+0</text>
</g>
<!-- s2[level=2]&#45;&gt;s2[level=2]=0 -->
<g id="edge7" class="edge"><title>s2[level=2]&#45;&gt;s2[level=2]=0</title>
<path fill="none" stroke="black" d="M94.7833,-277.911C91.0224,-262.67 85.6418,-240.864 82.5157,-228.195"/>
<text text-anchor="middle" x="93.5" y="-248.8" font-family="Times,serif" font-size="14.00">0</text>
</g>
<!-- s2[level=2]=1 -->
<g id="node10" class="node"><title>s2[level=2]=1</title>
<polygon fill="none" stroke="black" points="152,-228 116,-228 116,-206 152,-206 152,-228"/>
<text text-anchor="middle" x="134" y="-212.8" font-family="Times,serif" font-size="14.00">+1</text>
</g>
<!-- s2[level=2]&#45;&gt;s2[level=2]=1 -->
<g id="edge9" class="edge"><title>s2[level=2]&#45;&gt;s2[level=2]=1</title>
<path fill="none" stroke="black" d="M106.423,-278.67C113.325,-263.484 123.401,-241.317 129.271,-228.405"/>
<text text-anchor="middle" x="123.5" y="-248.8" font-family="Times,serif" font-size="14.00">1</text>
</g>
<!-- s2[level=2]=2 -->
<g id="node11" class="node"><title>s2[level=2]=2</title>
<polygon fill="none" stroke="black" points="206,-228 170,-228 170,-206 206,-206 206,-228"/>
<text text-anchor="middle" x="188" y="-212.8" font-family="Times,serif" font-size="14.00">+4</text>
</g>
<!-- s2[level=2]&#45;&gt;s2[level=2]=2 -->
<g id="edge11" class="edge"><title>s2[level=2]&#45;&gt;s2[level=2]=2</title>
<path fill="none" stroke="black" d="M114.911,-281.234C132.511,-266.007 160.457,-241.829 176.204,-228.205"/>
<text text-anchor="middle" x="157.5" y="-248.8" font-family="Times,serif" font-size="14.00">2</text>
</g>
<!-- s2[level=2]=0&#45;&gt;s1[level=1] -->
<g id="edge8" class="edge"><title>s2[level=2]=0&#45;&gt;s1[level=1]</title>
<path fill="none" stroke="black" d="M84.0625,-205.844C87.1579,-198.105 91.5637,-187.091 95.6158,-176.96"/>
<polygon fill="black" stroke="black" points="98.8738,-178.239 99.3381,-167.655 92.3745,-175.64 98.8738,-178.239"/>
</g>
<!-- s2[level=2]=1&#45;&gt;s1[level=1] -->
<g id="edge10" class="edge"><title>s2[level=2]=1&#45;&gt;s1[level=1]</title>
<path fill="none" stroke="black" d="M129.625,-205.844C126.268,-198.051 121.48,-186.936 117.091,-176.748"/>
<polygon fill="black" stroke="black" points="120.236,-175.202 113.066,-167.402 113.807,-177.971 120.236,-175.202"/>
</g>
<!-- s2[level=2]=2&#45;&gt;s1[level=1] -->
<g id="edge12" class="edge"><title>s2[level=2]=2&#45;&gt;s1[level=1]</title>
<path fill="none" stroke="black" d="M175.188,-205.844C163.364,-196.472 145.479,-182.295 130.856,-170.703"/>
<polygon fill="black" stroke="black" points="132.704,-167.701 122.693,-164.232 128.355,-173.187 132.704,-167.701"/>
</g>
<!-- s3[level=3]=0&#45;&gt;s1[level=1] -->
<g id="edge14" class="edge"><title>s3[level=3]=0&#45;&gt;s1[level=1]</title>
<path fill="none" stroke="black" d="M34.2567,-331.836C32.9704,-308.369 32.2102,-249.122 53,-206 59.5164,-192.484 70.6271,-180.17 80.9975,-170.637"/>
<polygon fill="black" stroke="black" points="83.4649,-173.13 88.6951,-163.916 78.8606,-167.857 83.4649,-173.13"/>
</g>
<!-- s3[level=3]=1&#45;&gt;s2[level=2] -->
<g id="edge16" class="edge"><title>s3[level=3]=1&#45;&gt;s2[level=2]</title>
<path fill="none" stroke="black" d="M88.4237,-371.916C90.0737,-360.228 92.8607,-340.487 95.1596,-324.203"/>
<polygon fill="black" stroke="black" points="98.6505,-324.512 96.5829,-314.121 91.7193,-323.534 98.6505,-324.512"/>
</g>
</g>
</svg>
